Coordinates
version=1
nRows=13
nColumns=40
inDegrees=yes

Units are S.I. units (second, meters, Newtons, ...)
Angles are in degrees.

endheader
time	pelvis_tilt	pelvis_list	pelvis_rotation	pelvis_tx	pelvis_ty	pelvis_tz	hip_flexion_r	hip_adduction_r	hip_rotation_r	knee_angle_r	knee_angle_r_beta	ankle_angle_r	subtalar_angle_r	mtp_angle_r	hip_flexion_l	hip_adduction_l	hip_rotation_l	knee_angle_l	knee_angle_l_beta	ankle_angle_l	subtalar_angle_l	mtp_angle_l	lumbar_extension	lumbar_bending	lumbar_rotation	arm_flex_r	arm_add_r	arm_rot_r	elbow_flex_r	pro_sup_r	wrist_flex_r	wrist_dev_r	arm_flex_l	arm_add_l	arm_rot_l	elbow_flex_l	pro_sup_l	wrist_flex_l	wrist_dev_l
     44.98000000	     -5.65535928	     -1.90141401	      1.45880339	      0.87333254	      0.91527188	      0.42576525	     20.54918354	     -7.32931335	     -1.76677014	     69.75805664	     69.75805664	      9.20491846	    -18.62801359	     10.15084259	     20.80916909	      1.68810310	      1.10936261	     29.80971720	     29.80971720	     17.33162072	    -16.04312126	      6.42521056	     -8.55766958	      4.42136713	      2.97932941	     16.59659786	    -12.17212195	     -9.43133409	     28.55345987	     46.36123416	      0.00000000	      0.00000000	      9.79263287	    -14.03939913	     11.26364192	     39.57562009	     45.78319073	      0.00000000	      0.00000000
     45.00178571	     -5.46258447	     -1.78363536	      1.34350598	      0.87405192	      0.91356136	      0.42302959	     20.87208346	     -7.51307692	     -1.26336788	     71.32276857	     71.32276857	     10.19620495	    -18.90807403	     12.46268926	     20.68633623	      2.12744283	      1.43939188	     30.72059619	     30.72059619	     18.23795937	    -16.68522984	      7.31641754	     -8.56685786	      4.75024547	      2.89538601	     13.19777823	    -12.54678736	     -9.85266784	     27.09050983	     46.43431204	      0.00000000	      0.00000000	     10.62757076	    -14.47604147	     10.08260297	     42.99475391	     45.94273276	      0.00000000	      0.00000000
     45.02357143	     -5.30529583	     -1.63981360	      1.16822769	      0.87463940	      0.91183986	      0.42039971	     21.16256332	     -7.80019990	     -0.84802552	     72.39950785	     72.39950785	     10.74225150	    -19.12626624	     12.92941859	     20.53734839	      2.55707918	      1.64511980	     31.49886593	     31.49886593	     18.81036895	    -17.33198168	      7.37359106	     -8.54829508	      5.06762187	      3.21114528	      9.56793741	    -13.05552426	     -9.91591510	     25.38284014	     46.48421380	      0.00000000	      0.00000000	     12.36099632	    -14.60056751	      9.35873850	     44.93751377	     46.05347217	      0.00000000	      0.00000000
     45.04535714	     -5.10533712	     -1.55083723	      0.92487645	      0.87508047	      0.91047256	      0.41817086	     21.45146915	     -7.89408326	     -0.37527504	     73.01866118	     73.01866118	     12.16822489	    -19.23848730	     16.10823332	     20.31558473	      2.88877142	      1.79341466	     32.25561617	     32.25561617	     19.95231692	    -17.68196147	      8.91734323	     -8.72897684	      5.41781858	      3.11111587	      5.97928368	    -13.29192441	    -10.39557033	     24.70674389	     46.53069465	      0.00000000	      0.00000000	     13.20156700	    -15.09908049	      7.63907006	     48.91570776	     46.27524595	      0.00000000	      0.00000000
     45.06714286	     -4.99504011	     -1.50191859	      0.56930334	      0.87522657	      0.90930334	      0.41642481	     21.77486721	     -8.02210444	     -0.06295708	     72.83065101	     72.83065101	     12.92068332	    -19.32961554	     16.44994037	     20.09396061	      3.07154418	      1.71283517	     32.76192074	     32.76192074	     20.50787099	    -18.00472508	      9.10814969	     -8.80425949	      5.79714387	      3.42070805	      2.66419117	    -13.58942629	    -10.48098406	     23.21013832	     46.57798493	      0.00000000	      0.00000000	     15.02342653	    -15.33194753	      6.84049869	     50.93205275	     46.38982638	      0.00000000	      0.00000000
     45.08892857	     -4.90156425	     -1.51550880	      0.15657518	      0.87504876	      0.90859193	      0.41530198	     22.12317156	     -8.04160366	      0.14980161	     71.90530836	     71.90530836	     13.79345092	    -19.35492539	     16.82077675	     19.83154461	      3.11764870	      1.56613980	     33.10854127	     33.10854127	     21.03776277	    -18.22760262	      9.41083350	     -8.93647103	      6.18178914	      3.53781154	     -0.31959842	    -13.66245026	    -10.62414389	     22.10466672	     46.61565102	      0.00000000	      0.00000000	     16.79585056	    -15.75233371	      6.03978451	     53.10725210	     46.50329788	      0.00000000	      0.00000000
     45.11071429	     -4.98865074	     -1.55471537	     -0.39457202	      0.87441711	      0.90830171	      0.41502362	     22.71357162	     -7.93368679	      0.35768613	     70.24314708	     70.24314708	     14.62978041	    -19.37619073	     16.83067493	     19.62399390	      3.02099885	      1.24659556	     33.11720785	     33.11720785	     21.30883780	    -18.36834155	      9.51799913	     -8.90511887	      6.54251516	      2.83951962	     -2.43161520	    -13.63016862	    -10.71914908	     21.38208648	     46.63656088	      0.00000000	      0.00000000	     18.36510730	    -16.92524070	      5.44496912	     54.05948954	     46.57894895	      0.00000000	      0.00000000
     45.13250000	     -5.00482582	     -1.75883328	     -1.13211379	      0.87348121	      0.90864945	      0.41557225	     23.21281553	     -7.52159794	      0.56968456	     67.81985481	     67.81985481	     15.50696138	    -19.34669161	     16.91735551	     19.34261650	      2.66938771	      0.85772833	     33.15580598	     33.15580598	     22.13023502	    -18.35047458	     11.04552453	     -9.28891487	      6.95189589	      3.13549332	     -5.23022861	    -13.52799936	    -11.81123480	     22.21831148	     46.69610104	      0.00000000	      0.00000000	     19.04225023	    -17.54488626	      3.75577617	     59.52712740	     46.79811593	      0.00000000	      0.00000000
     45.15428571	     -5.11838906	     -2.05805411	     -1.96099895	      0.87218653	      0.90960292	      0.41696237	     23.72718291	     -6.90974480	      0.71321024	     64.63455445	     64.63455445	     16.16864176	    -19.25655067	     16.41514311	     18.97288290	      2.09714851	      0.30977765	     32.76296681	     32.76296681	     22.24831579	    -18.36200224	     11.21762209	     -9.46914656	      7.42042789	      3.16090137	     -6.88534565	    -13.40518463	    -11.99372856	     21.71882023	     46.72444637	      0.00000000	      0.00000000	     20.81106029	    -18.32653375	      3.03081146	     61.07906465	     46.88905112	      0.00000000	      0.00000000
     45.17607143	     -5.36784999	     -2.35223735	     -2.92714334	      0.87050615	      0.91089427	      0.41907027	     24.23302712	     -6.29613218	      0.76241088	     60.64863742	     60.64863742	     15.63381166	    -19.12001731	     12.31392522	     18.64441645	      1.44324685	     -0.38818226	     32.14937101	     32.14937101	     22.24313282	    -18.33743717	     11.38504528	     -9.65549684	      7.80006310	      2.85665196	     -8.27448130	    -13.13419024	    -13.31215860	     22.57331181	     46.82016668	      0.00000000	      0.00000000	     21.65965781	    -19.50801252	      1.57962836	     64.36000149	     47.05675015	      0.00000000	      0.00000000
     45.19785714	     -5.65840065	     -2.74863233	     -4.00796651	      0.86855597	      0.91263661	      0.42196648	     24.64811622	     -5.43239083	      0.85175349	     56.11841529	     56.11841529	     15.02613875	    -18.79970273	      8.68598007	     18.23889828	      0.59234768	     -1.20368255	     31.32232904	     31.32232904	     22.02068439	    -18.28345119	     11.26386652	     -9.84249996	      8.19197509	      3.00681464	     -9.29275741	    -12.84172064	    -14.12027581	     22.82549610	     46.88440678	      0.00000000	      0.00000000	     23.08617177	    -20.38321049	      0.65830463	     66.62513935	     47.17289025	      0.00000000	      0.00000000
     45.21964286	     -5.96968766	     -3.17064799	     -5.14208965	      0.86640886	      0.91470023	      0.42536672	     24.85535891	     -4.54530245	      0.82791636	     51.01360789	     51.01360789	     13.69267699	    -18.23020743	      3.51105389	     17.74548562	     -0.32154979	     -2.06992544	     30.31424554	     30.31424554	     21.65681861	    -18.23996368	     10.98038071	    -10.06849114	      8.62089071	      2.80719595	     -9.80773186	    -12.52038088	    -15.18820543	     23.69948167	     46.93909059	      0.00000000	      0.00000000	     24.12227257	    -21.56064959	     -0.43588003	     68.83834542	     47.29969383	      0.00000000	      0.00000000
     45.24142857	     -6.45331439	     -3.62876484	     -6.32064864	      0.86396402	      0.91663095	      0.42928706	     25.29519277	     -3.50308753	      0.87288220	     46.12237887	     46.12237887	     13.86073281	    -16.36684502	      3.36998456	     17.43323654	     -1.32147148	     -2.95217260	     29.34266881	     29.34266881	     21.46567504	    -18.11081367	     11.21001035	    -10.05040574	      9.05173404	      2.78578253	     -9.87085937	    -12.22248845	    -15.25320782	     23.85163975	     46.93553111	      0.00000000	      0.00000000	     25.70428617	    -22.59711580	     -0.93929241	     69.56152347	     47.35613089	      0.00000000	      0.00000000
